<?xml version="1.0"?>
<svg width="24" height="24" xmlns="http://www.w3.org/2000/svg" xmlns:svg="http://www.w3.org/2000/svg" version="1.1" xml:space="preserve">

 <g class="layer">
  <title>Layer 1</title>
  <path d="m18,8l-1,0l0,-2c0,-2.76 -2.24,-5 -5,-5s-5,2.24 -5,5l0,2l-1,0c-1.1,0 -2,0.9 -2,2l0,10c0,1.1 0.9,2 2,2l12,0c1.1,0 2,-0.9 2,-2l0,-10c0,-1.1 -0.9,-2 -2,-2zm-6,9c-1.1,0 -2,-0.9 -2,-2s0.9,-2 2,-2s2,0.9 2,2s-0.9,2 -2,2zm3.1,-9l-6.2,0l0,-2c0,-1.71 1.39,-3.1 3.1,-3.1c1.71,0 3.1,1.39 3.1,3.1l0,2z" fill="#3f7f00" id="svg_1" style="--darkreader-inline-fill: #326600;"/>
 </g>
</svg>